<svg xmlns="http://www.w3.org/2000/svg" viewBox="0 0 441.21 16.1"><defs><style>.cls-1{fill:#c9854e;}</style></defs><g id="圖層_2" data-name="圖層 2"><g id="圖層_1-2" data-name="圖層 1"><path class="cls-1" d="M13.36,15.94,9.76,2.24a.39.39,0,0,0-.76,0L5.39,15.94H4.09L0,0H1L4.39,13.67a.41.41,0,0,0,.38.31h0a.42.42,0,0,0,.39-.3L8.67,0h1.42l3.49,13.68A.4.4,0,0,0,14,14h0a.42.42,0,0,0,.39-.31L17.7,0h1.06L14.65,15.94Z"/><path class="cls-1" d="M37,16.1a5.44,5.44,0,1,1,5.47-5.46A5.46,5.46,0,0,1,37,16.1ZM37,6a4.64,4.64,0,1,0,4.64,4.63A4.63,4.63,0,0,0,37,6Z"/><path class="cls-1" d="M60.37,15.92V14.84l7.21-8.06a.42.42,0,0,0,.07-.43.41.41,0,0,0-.36-.23H60.37V5.33h8.46V6.66l-7,7.78a.4.4,0,0,0-.06.43.39.39,0,0,0,.36.23h6.69v.82Z"/><path class="cls-1" d="M92.2,16.1a5.38,5.38,0,0,1-5.41-5.46A5.35,5.35,0,0,1,92,5.22,4.71,4.71,0,0,1,96.1,7.15a.39.39,0,0,0,.32.16h.12a.42.42,0,0,0,.28-.38V5.37h.81V15.94h-.81V14.19a.39.39,0,0,0-.27-.37.31.31,0,0,0-.13,0,.4.4,0,0,0-.31.16A5.08,5.08,0,0,1,92.2,16.1ZM92,6a4.57,4.57,0,0,0-4.51,4.61,4.5,4.5,0,1,0,9,0A4.55,4.55,0,0,0,92,6Z"/><path class="cls-1" d="M131.75,10a.39.39,0,0,0-.28-.12.36.36,0,0,0-.28.12L127,14.17l-.48-.48,4.15-4.14a.4.4,0,0,0,0-.56l-4.15-4.15.48-.48,4.15,4.15a.39.39,0,0,0,.28.11h0a.43.43,0,0,0,.28-.11l4.14-4.15.48.48L132.22,9a.4.4,0,0,0,0,.56l4.15,4.14-.48.48Z"/><path class="cls-1" d="M170.71,16.1c-4,0-6-2.24-6-6.65V0h.9V9.58c0,3.53,1.89,5.64,5.05,5.64s5.07-2.11,5.07-5.64V0h.9V9.45C176.68,13.86,174.67,16.1,170.71,16.1Z"/><path class="cls-1" d="M190.25,15.94V0h4.84a4.2,4.2,0,0,1,4.44,4.08,3.85,3.85,0,0,1-1.6,3.2.38.38,0,0,0-.16.37A.41.41,0,0,0,198,8a3.9,3.9,0,0,1,2.57,3.76,4.24,4.24,0,0,1-4.44,4.19Zm1.25-7.5a.39.39,0,0,0-.39.4v6.05a.38.38,0,0,0,.39.39h4.29c2.43,0,3.94-1.3,3.94-3.39s-1.45-3.45-3.8-3.45Zm0-7.54a.39.39,0,0,0-.39.4v6a.39.39,0,0,0,.39.4h3.41c2.25,0,3.76-1.39,3.76-3.45S197.16.9,194.91.9Z"/><path class="cls-1" d="M219.68,15.94V5.37h.88V15.94Zm0-13.48V0h.88V2.46Z"/><path class="cls-1" d="M248.49,15.94V9.79a3.65,3.65,0,0,0-3.6-3.72c-3.33,0-3.7,3.15-3.74,3.78v6.09h-.86V5.37h.86V6.65a.41.41,0,0,0,.28.38h.12a.39.39,0,0,0,.32-.17A3.45,3.45,0,0,1,245,5.22a4.31,4.31,0,0,1,4.4,4.57v6.15Z"/><path class="cls-1" d="M284.35,10a.38.38,0,0,0-.28-.12.39.39,0,0,0-.28.12l-4.14,4.14-.48-.48,4.15-4.14a.4.4,0,0,0,0-.56l-4.15-4.15.48-.48,4.14,4.15a.43.43,0,0,0,.28.11h0a.39.39,0,0,0,.28-.11l4.15-4.15.48.48L284.83,9a.4.4,0,0,0,0,.56L289,13.69l-.48.48Z"/><path class="cls-1" d="M329.89,15.94l-1.71-3.81a.39.39,0,0,0-.36-.23h-9a.39.39,0,0,0-.36.23l-1.73,3.81h-.91L323,0h.7l7.14,15.92Zm-6.56-14a.39.39,0,0,0-.36.23l-3.77,8.35a.4.4,0,0,0,.36.56h7.52a.4.4,0,0,0,.33-.18.42.42,0,0,0,0-.38l-3.75-8.35a.39.39,0,0,0-.36-.23Z"/><rect class="cls-1" x="351.24" y="0.02" width="0.86" height="15.92"/><rect class="cls-1" x="379.58" y="0.02" width="0.86" height="15.92"/><path class="cls-1" d="M408.33,16.1a5.38,5.38,0,0,1-5.4-5.46,5.35,5.35,0,0,1,5.25-5.42,4.69,4.69,0,0,1,4.05,1.93.39.39,0,0,0,.33.16h.12a.41.41,0,0,0,.27-.38V5.37h.81V15.94H413V14.19a.39.39,0,0,0-.27-.37.27.27,0,0,0-.12,0,.42.42,0,0,0-.32.16A5.06,5.06,0,0,1,408.33,16.1ZM408.15,6a4.56,4.56,0,0,0-4.5,4.61,4.49,4.49,0,1,0,9,0A4.55,4.55,0,0,0,408.15,6Z"/><path class="cls-1" d="M440.35,15.94V9.79a3.65,3.65,0,0,0-3.6-3.72c-3.32,0-3.69,3.15-3.73,3.78v6.09h-.85V5.37H433V6.65a.42.42,0,0,0,.28.38h.12a.4.4,0,0,0,.33-.17,3.43,3.43,0,0,1,3.08-1.65,4.3,4.3,0,0,1,4.39,4.57v6.15Z"/></g></g></svg>