<svg xmlns="http://www.w3.org/2000/svg" viewBox="0 0 165.46 61.56"><defs><style>.cls-1{fill:#c9854e;}</style></defs><g id="圖層_2" data-name="圖層 2"><g id="圖層_1-2" data-name="圖層 1"><polygon class="cls-1" points="0 59.45 0 0.28 0.89 0.28 0.89 56.93 47.13 0 47.83 0.56 0 59.45"/><polygon class="cls-1" points="33.92 59.45 33.92 0.28 34.82 0.28 34.82 56.93 81.06 0 81.75 0.56 33.92 59.45"/><polygon class="cls-1" points="164.7 61.35 128.81 4.04 92.92 61.35 92.16 60.87 128.81 2.36 165.46 60.87 164.7 61.35"/><path class="cls-1" d="M88.43,61.56c-28.19,0-28.73-20.1-29-28.69,0-.54,0-1,0-1.51V1.57h.9V31.34c0,.45,0,1,0,1.51.25,9,.75,27.81,28.07,27.81,8.31,0,14.54-2.09,18.52-6.2,6.13-6.35,5.78-16.33,5.57-22.29l0-.81V1.57h.89l0,30.57c.22,6.1.58,16.32-5.82,22.94C103.44,59.38,97,61.56,88.43,61.56Z"/></g></g></svg>